<svg width="25" height="24" viewBox="0 0 25 24" fill="none" xmlns="http://www.w3.org/2000/svg">
<path d="M21.9169 0H12.8082C12.6218 0 12.4429 0.0741617 12.3111 0.206005L1.25474 11.262C0.247606 12.2695 0.247606 13.9085 1.25474 14.9157L9.58484 23.2456C10.0712 23.7319 10.72 23.9998 11.4114 24C12.103 24 12.752 23.7319 13.2385 23.2454L24.2945 12.1892C24.4263 12.0574 24.5005 11.8785 24.5005 11.6921L24.5007 2.58339C24.5005 1.15894 23.3414 0 21.9169 0ZM23.0942 11.4009L12.244 22.2511C12.0232 22.4721 11.7275 22.5937 11.4116 22.5937C11.0955 22.5937 10.8 22.4721 10.5792 22.2512L2.24906 13.9213C1.79017 13.4624 1.79017 12.7153 2.24906 12.2563L13.0994 1.40632H21.9169C22.5661 1.40632 23.0943 1.93443 23.0943 2.58357L23.0942 11.4009Z" fill="#828282"/>
<path d="M18.3028 3.98826C17.7126 3.98826 17.1578 4.21826 16.7405 4.63558C16.3232 5.05271 16.0933 5.60755 16.0933 6.19774C16.0933 6.78792 16.3232 7.34276 16.7405 7.76008C17.1578 8.1774 17.7126 8.40721 18.3028 8.40721C18.8928 8.40721 19.4477 8.1774 19.865 7.76008C20.2823 7.34276 20.5121 6.78792 20.5121 6.19774C20.5121 5.60755 20.2823 5.05271 19.8652 4.63558C19.4478 4.21826 18.893 3.98826 18.3028 3.98826ZM18.8707 6.76558C18.719 6.91738 18.5172 7.00088 18.3028 7.00088C18.0882 7.00088 17.8866 6.91738 17.735 6.76558C17.5832 6.61396 17.4997 6.41217 17.4997 6.19774C17.4997 5.98331 17.5832 5.78151 17.735 5.62989C17.8866 5.47809 18.0884 5.39459 18.3028 5.39459C18.5172 5.39459 18.7189 5.47809 18.8707 5.62989C19.0225 5.78151 19.106 5.98331 19.106 6.19774C19.106 6.41217 19.0223 6.61396 18.8707 6.76558Z" fill="#828282"/>
<path d="M10.1014 8.49505C10.4954 8.10096 10.9181 7.9065 11.3692 7.91169C11.8255 7.92206 12.2352 8.10873 12.5981 8.47171C12.9611 8.8347 13.1452 9.24175 13.1504 9.69289C13.1608 10.1492 12.9689 10.5744 12.5748 10.9685C12.1755 11.3678 11.7477 11.5622 11.2914 11.5519C10.8403 11.5467 10.4332 11.3626 10.0702 10.9996C9.70726 10.6366 9.52058 10.227 9.51021 9.77067C9.50502 9.31954 9.70207 8.89433 10.1014 8.49505ZM16.2617 12.3219L7.76012 14.7098L6.70229 13.652L15.1961 11.2563L16.2617 12.3219ZM11.937 9.1173C11.6518 8.8321 11.307 8.89174 10.9025 9.2962C10.4929 9.70585 10.4306 10.0533 10.7158 10.3385C10.8558 10.4785 11.014 10.5381 11.1903 10.5174C11.3718 10.4914 11.5662 10.3748 11.7737 10.1674C12.1781 9.76289 12.2326 9.41287 11.937 9.1173ZM10.4125 15.0132C10.8118 14.6139 11.2344 14.4194 11.6803 14.4298C12.1366 14.4402 12.5463 14.6268 12.9093 14.9898C13.2723 15.3528 13.4537 15.7573 13.4537 16.2032C13.4641 16.6492 13.2697 17.0718 12.8704 17.4711C12.4711 17.8703 12.0459 18.0674 11.5948 18.0622C11.1488 18.0622 10.7443 17.8807 10.3814 17.5177C10.0132 17.1496 9.82652 16.7399 9.82134 16.2888C9.81615 15.8376 10.0132 15.4124 10.4125 15.0132ZM12.2481 15.6354C11.9526 15.3398 11.6025 15.3943 11.1981 15.7988C10.7884 16.2084 10.7314 16.561 11.027 16.8566C11.3173 17.147 11.6674 17.0873 12.077 16.6777C12.4815 16.2732 12.5385 15.9258 12.2481 15.6354Z" fill="#828282"/>
</svg>
