<svg width="29" height="25" viewBox="0 0 29 25" fill="none" xmlns="http://www.w3.org/2000/svg">
<path d="M9.6446 16.4873H9.64585C9.64689 16.4873 9.64793 16.4871 9.64897 16.4871H24.1533C24.5104 16.4871 24.8244 16.2502 24.9225 15.9069L28.1225 4.70685C28.1915 4.46539 28.1431 4.20581 27.9921 4.00539C27.8408 3.80498 27.6044 3.68706 27.3533 3.68706H7.7996L7.22772 1.11352C7.14626 0.747477 6.82168 0.487061 6.44668 0.487061H1.64668C1.2048 0.487061 0.84668 0.845186 0.84668 1.28706C0.84668 1.72894 1.2048 2.08706 1.64668 2.08706H5.80501C5.90626 2.5431 8.54168 14.4027 8.69335 15.085C7.84314 15.4546 7.24668 16.3023 7.24668 17.2871C7.24668 18.6104 8.32335 19.6871 9.64668 19.6871H24.1533C24.5952 19.6871 24.9533 19.3289 24.9533 18.8871C24.9533 18.4452 24.5952 18.0871 24.1533 18.0871H9.64668C9.20564 18.0871 8.84668 17.7281 8.84668 17.2871C8.84668 16.8466 9.20439 16.4883 9.6446 16.4873ZM26.2927 5.28706L23.5498 14.8871H10.2883L8.15501 5.28706H26.2927Z" fill="#828282"/>
<path d="M8.84666 22.0871C8.84666 23.4104 9.92333 24.4871 11.2467 24.4871C12.57 24.4871 13.6467 23.4104 13.6467 22.0871C13.6467 20.7637 12.57 19.6871 11.2467 19.6871C9.92333 19.6871 8.84666 20.7637 8.84666 22.0871ZM11.2467 21.2871C11.6877 21.2871 12.0467 21.646 12.0467 22.0871C12.0467 22.5281 11.6877 22.8871 11.2467 22.8871C10.8056 22.8871 10.4467 22.5281 10.4467 22.0871C10.4467 21.646 10.8056 21.2871 11.2467 21.2871Z" fill="#828282"/>
<path d="M20.1533 22.0871C20.1533 23.4104 21.23 24.4871 22.5533 24.4871C23.8767 24.4871 24.9533 23.4104 24.9533 22.0871C24.9533 20.7637 23.8767 19.6871 22.5533 19.6871C21.23 19.6871 20.1533 20.7637 20.1533 22.0871ZM22.5533 21.2871C22.9944 21.2871 23.3533 21.646 23.3533 22.0871C23.3533 22.5281 22.9944 22.8871 22.5533 22.8871C22.1123 22.8871 21.7533 22.5281 21.7533 22.0871C21.7533 21.646 22.1123 21.2871 22.5533 21.2871Z" fill="#828282"/>
</svg>
