<svg width="25" height="24" viewBox="0 0 25 24" fill="none" xmlns="http://www.w3.org/2000/svg">
<path d="M23.8543 10.4396C23.8536 10.439 23.8531 10.4383 23.8525 10.4377L14.0624 0.64801C13.6451 0.23053 13.0903 0.000732422 12.5002 0.000732422C11.91 0.000732422 11.3552 0.23053 10.9377 0.64801L1.15273 10.4328C1.14944 10.4361 1.14596 10.4396 1.14285 10.4429C0.285913 11.3047 0.287378 12.7031 1.14706 13.5628C1.53982 13.9557 2.05837 14.1832 2.613 14.2072C2.63571 14.2094 2.65841 14.2104 2.6813 14.2104H3.07131V21.4149C3.07131 22.8408 4.23147 24.0007 5.65731 24.0007H9.48751C9.87588 24.0007 10.1906 23.6858 10.1906 23.2976V17.6492C10.1906 16.9986 10.72 16.4694 11.3706 16.4694H13.6297C14.2803 16.4694 14.8095 16.9986 14.8095 17.6492V23.2976C14.8095 23.6858 15.1242 24.0007 15.5126 24.0007H19.3428C20.7688 24.0007 21.9288 22.8408 21.9288 21.4149V14.2104H22.2906C22.8806 14.2104 23.4354 13.9807 23.8531 13.563C24.7137 12.702 24.714 11.3011 23.8543 10.4396ZM22.8586 12.5687C22.7068 12.7205 22.505 12.8042 22.2906 12.8042H21.2257C20.8373 12.8042 20.5226 13.119 20.5226 13.5073V21.4149C20.5226 22.0653 19.9934 22.5945 19.3428 22.5945H16.2157V17.6492C16.2157 16.2233 15.0558 15.0632 13.6297 15.0632H11.3706C9.94455 15.0632 8.78439 16.2233 8.78439 17.6492V22.5945H5.65731C5.00692 22.5945 4.47757 22.0653 4.47757 21.4149V13.5073C4.47757 13.119 4.16281 12.8042 3.77444 12.8042H2.72781C2.71682 12.8035 2.70602 12.8029 2.69485 12.8027C2.48538 12.7991 2.2889 12.7159 2.14169 12.5685C1.82858 12.2554 1.82858 11.7458 2.14169 11.4326C2.1415 11.4327 2.14187 11.4326 2.14169 11.4326L11.9323 1.64227C12.084 1.49048 12.2856 1.40698 12.5002 1.40698C12.7146 1.40698 12.9162 1.49048 13.068 1.64227L22.8555 11.4296C22.857 11.4311 22.8586 11.4326 22.8601 11.434C23.1715 11.7477 23.171 12.2562 22.8586 12.5687Z" fill="#828282"/>
</svg>
