<svg width="21" height="24" viewBox="0 0 21 24" fill="none" xmlns="http://www.w3.org/2000/svg">
<path d="M10.3485 11.5616C11.9368 11.5616 13.3119 10.992 14.4358 9.86808C15.5593 8.74436 16.1292 7.36942 16.1292 5.78098C16.1292 4.19309 15.5595 2.81797 14.4356 1.69389C13.3117 0.570351 11.9366 0.000709534 10.3485 0.000709534C8.76007 0.000709534 7.38513 0.570351 6.26141 1.69407C5.1377 2.81779 4.56787 4.19291 4.56787 5.78098C4.56787 7.36942 5.1377 8.74454 6.26141 9.86826C7.3855 10.9918 8.76062 11.5616 10.3485 11.5616ZM7.25604 2.68851C8.11829 1.82627 9.12976 1.40714 10.3485 1.40714C11.5671 1.40714 12.5787 1.82627 13.4412 2.68851C14.3034 3.55094 14.7227 4.5626 14.7227 5.78098C14.7227 6.99973 14.3034 8.01121 13.4412 8.87363C12.5787 9.73606 11.5671 10.1552 10.3485 10.1552C9.13013 10.1552 8.11865 9.73588 7.25604 8.87363C6.39362 8.01139 5.9743 6.99973 5.9743 5.78098C5.9743 4.5626 6.39362 3.55094 7.25604 2.68851Z" fill="#828282"/>
<path d="M20.4631 18.4555C20.4307 17.9879 20.3651 17.4778 20.2686 16.9391C20.1712 16.3963 20.0458 15.8833 19.8956 15.4143C19.7404 14.9297 19.5296 14.451 19.2687 13.9923C18.9982 13.5163 18.6804 13.1017 18.3237 12.7606C17.9507 12.4037 17.494 12.1168 16.9659 11.9075C16.4397 11.6993 15.8565 11.5938 15.2327 11.5938C14.9877 11.5938 14.7507 11.6944 14.2932 11.9923C14.0115 12.1759 13.6821 12.3883 13.3145 12.6233C13.0001 12.8236 12.5742 13.0113 12.0481 13.1812C11.5349 13.3473 11.0137 13.4315 10.4992 13.4315C9.98505 13.4315 9.46393 13.3473 8.95032 13.1812C8.4248 13.0115 7.99872 12.8238 7.68488 12.6235C7.32068 12.3907 6.99109 12.1783 6.70526 11.9921C6.24805 11.6942 6.01111 11.5937 5.76611 11.5937C5.14209 11.5937 4.55908 11.6993 4.03302 11.9077C3.50531 12.1166 3.04846 12.4035 2.67511 12.7608C2.31842 13.1021 2.00055 13.5165 1.73029 13.9923C1.46973 14.451 1.25879 14.9295 1.10352 15.4145C0.953552 15.8835 0.828125 16.3963 0.730713 16.9391C0.634033 17.477 0.568665 17.9873 0.536255 18.4561C0.504395 18.9144 0.488281 19.3914 0.488281 19.8733C0.488281 21.1261 0.886536 22.1404 1.67188 22.8883C2.44751 23.6264 3.47363 24.0007 4.72186 24.0007H16.278C17.5259 24.0007 18.552 23.6264 19.3278 22.8883C20.1133 22.1409 20.5116 21.1263 20.5116 19.8731C20.5114 19.3896 20.4951 18.9126 20.4631 18.4555ZM18.3581 21.8694C17.8456 22.3572 17.1652 22.5943 16.2778 22.5943H4.72186C3.83435 22.5943 3.15393 22.3572 2.6416 21.8695C2.13898 21.3911 1.89471 20.738 1.89471 19.8733C1.89471 19.4236 1.90955 18.9796 1.93921 18.5533C1.96814 18.1351 2.02728 17.6757 2.11499 17.1875C2.2016 16.7054 2.31183 16.253 2.44293 15.8434C2.56873 15.4506 2.7403 15.0617 2.95306 14.687C3.15613 14.33 3.38977 14.0237 3.64758 13.7768C3.88873 13.5459 4.19269 13.357 4.55084 13.2152C4.88208 13.0841 5.25433 13.0124 5.65845 13.0016C5.7077 13.0277 5.79541 13.0777 5.9375 13.1704C6.22662 13.3588 6.55988 13.5738 6.92828 13.8091C7.34357 14.0738 7.8786 14.313 8.51782 14.5193C9.17133 14.7306 9.83783 14.8379 10.4994 14.8379C11.1609 14.8379 11.8276 14.7306 12.4808 14.5195C13.1205 14.3128 13.6554 14.0738 14.0712 13.8087C14.4482 13.5677 14.7722 13.359 15.0613 13.1704C15.2034 13.0779 15.2911 13.0277 15.3403 13.0016C15.7446 13.0124 16.1169 13.0841 16.4483 13.2152C16.8063 13.357 17.1102 13.5461 17.3514 13.7768C17.6092 14.0235 17.8428 14.3298 18.0459 14.6872C18.2589 15.0617 18.4306 15.4508 18.5562 15.8432C18.6875 16.2533 18.7979 16.7056 18.8843 17.1874C18.9719 17.6764 19.0312 18.136 19.0601 18.5535C19.09 18.9781 19.105 19.4223 19.1052 19.8733C19.105 20.7381 18.8607 21.3911 18.3581 21.8694Z" fill="#828282"/>
</svg>
