<svg width="25" height="24" viewBox="0 0 25 24" fill="none" xmlns="http://www.w3.org/2000/svg">
<path d="M24.2266 22.4079L18.3695 16.5508C19.8254 14.8001 20.7025 12.5519 20.7025 10.1023C20.7025 4.53227 16.1711 0.000732422 10.6013 0.000732422C5.03141 0.000732422 0.5 4.53227 0.5 10.1023C0.5 15.6719 5.03141 20.2031 10.6013 20.2031C13.0508 20.2031 15.2991 19.3261 17.0498 17.8702L22.9071 23.7274C23.0893 23.9097 23.3281 24.0007 23.5669 24.0007C23.8056 24.0007 24.0445 23.9097 24.2268 23.7274C24.5912 23.363 24.5912 22.7723 24.2266 22.4079ZM2.36621 10.1023C2.36621 5.5613 6.06044 1.86695 10.6013 1.86695C15.1421 1.86695 18.8362 5.5613 18.8362 10.1023C18.8362 14.6429 15.1421 18.3369 10.6013 18.3369C6.06044 18.3369 2.36621 14.6429 2.36621 10.1023Z" fill="#828282"/>
</svg>
