<svg width="140" height="168" viewBox="0 0 140 168" fill="none" xmlns="http://www.w3.org/2000/svg">
<path d="M39.5938 147.336C36.8898 147.336 34.8258 146.584 33.4018 145.08C31.9938 143.576 31.2898 141.44 31.2898 138.672C31.2898 137.296 31.5058 136.072 31.9378 135C32.3698 133.912 32.9618 133 33.7138 132.264C34.4658 131.512 35.3618 130.944 36.4018 130.56C37.4418 130.176 38.5698 129.984 39.7858 129.984C40.4898 129.984 41.1298 130.04 41.7058 130.152C42.2818 130.248 42.7858 130.368 43.2178 130.512C43.6498 130.64 44.0098 130.776 44.2978 130.92C44.5858 131.064 44.7938 131.176 44.9218 131.256L43.8418 134.28C43.3298 134.008 42.7298 133.776 42.0418 133.584C41.3698 133.392 40.6018 133.296 39.7378 133.296C39.1618 133.296 38.5938 133.392 38.0338 133.584C37.4898 133.776 37.0018 134.088 36.5698 134.52C36.1538 134.936 35.8178 135.48 35.5618 136.152C35.3058 136.824 35.1778 137.64 35.1778 138.6C35.1778 139.368 35.2578 140.088 35.4178 140.76C35.5938 141.416 35.8658 141.984 36.2338 142.464C36.6178 142.944 37.1138 143.328 37.7218 143.616C38.3298 143.888 39.0658 144.024 39.9298 144.024C40.4738 144.024 40.9618 143.992 41.3938 143.928C41.8258 143.864 42.2098 143.792 42.5458 143.712C42.8818 143.616 43.1778 143.512 43.4338 143.4C43.6898 143.288 43.9218 143.184 44.1298 143.088L45.1618 146.088C44.6338 146.408 43.8898 146.696 42.9298 146.952C41.9698 147.208 40.8578 147.336 39.5938 147.336ZM52.0907 144.504C52.4427 144.504 52.7787 144.496 53.0987 144.48C53.4187 144.464 53.6747 144.44 53.8667 144.408V141.696C53.7227 141.664 53.5067 141.632 53.2187 141.6C52.9307 141.568 52.6667 141.552 52.4267 141.552C52.0907 141.552 51.7707 141.576 51.4667 141.624C51.1787 141.656 50.9227 141.728 50.6987 141.84C50.4747 141.952 50.2987 142.104 50.1707 142.296C50.0427 142.488 49.9787 142.728 49.9787 143.016C49.9787 143.576 50.1627 143.968 50.5307 144.192C50.9147 144.4 51.4347 144.504 52.0907 144.504ZM51.8027 134.04C52.8587 134.04 53.7387 134.16 54.4427 134.4C55.1467 134.64 55.7067 134.984 56.1227 135.432C56.5547 135.88 56.8587 136.424 57.0347 137.064C57.2107 137.704 57.2987 138.416 57.2987 139.2V146.64C56.7867 146.752 56.0747 146.88 55.1627 147.024C54.2507 147.184 53.1467 147.264 51.8507 147.264C51.0347 147.264 50.2907 147.192 49.6187 147.048C48.9627 146.904 48.3947 146.672 47.9147 146.352C47.4347 146.016 47.0667 145.584 46.8107 145.056C46.5547 144.528 46.4267 143.88 46.4267 143.112C46.4267 142.376 46.5707 141.752 46.8587 141.24C47.1627 140.728 47.5627 140.32 48.0587 140.016C48.5547 139.712 49.1227 139.496 49.7627 139.368C50.4027 139.224 51.0667 139.152 51.7547 139.152C52.2187 139.152 52.6267 139.176 52.9787 139.224C53.3467 139.256 53.6427 139.304 53.8667 139.368V139.032C53.8667 138.424 53.6827 137.936 53.3147 137.568C52.9467 137.2 52.3067 137.016 51.3947 137.016C50.7867 137.016 50.1867 137.064 49.5947 137.16C49.0027 137.24 48.4907 137.36 48.0587 137.52L47.6027 134.64C47.8107 134.576 48.0667 134.512 48.3707 134.448C48.6907 134.368 49.0347 134.304 49.4027 134.256C49.7707 134.192 50.1547 134.144 50.5547 134.112C50.9707 134.064 51.3867 134.04 51.8027 134.04ZM67.8403 137.544C67.5203 137.464 67.1443 137.384 66.7123 137.304C66.2803 137.208 65.8163 137.16 65.3203 137.16C65.0963 137.16 64.8243 137.184 64.5043 137.232C64.2003 137.264 63.9683 137.304 63.8083 137.352V147H60.2323V135.048C60.8723 134.824 61.6243 134.616 62.4883 134.424C63.3683 134.216 64.3443 134.112 65.4163 134.112C65.6083 134.112 65.8403 134.128 66.1123 134.16C66.3843 134.176 66.6563 134.208 66.9283 134.256C67.2003 134.288 67.4723 134.336 67.7443 134.4C68.0163 134.448 68.2483 134.512 68.4403 134.592L67.8403 137.544ZM77.6653 137.544C77.3453 137.464 76.9693 137.384 76.5373 137.304C76.1053 137.208 75.6413 137.16 75.1453 137.16C74.9213 137.16 74.6493 137.184 74.3293 137.232C74.0253 137.264 73.7933 137.304 73.6333 137.352V147H70.0573V135.048C70.6973 134.824 71.4493 134.616 72.3133 134.424C73.1933 134.216 74.1693 134.112 75.2413 134.112C75.4333 134.112 75.6653 134.128 75.9373 134.16C76.2093 134.176 76.4813 134.208 76.7533 134.256C77.0253 134.288 77.2973 134.336 77.5693 134.4C77.8413 134.448 78.0733 134.512 78.2653 134.592L77.6653 137.544ZM91.456 140.664C91.456 141.656 91.312 142.568 91.024 143.4C90.736 144.216 90.32 144.92 89.776 145.512C89.232 146.088 88.576 146.536 87.808 146.856C87.056 147.176 86.208 147.336 85.264 147.336C84.336 147.336 83.488 147.176 82.72 146.856C81.968 146.536 81.32 146.088 80.776 145.512C80.232 144.92 79.808 144.216 79.504 143.4C79.2 142.568 79.048 141.656 79.048 140.664C79.048 139.672 79.2 138.768 79.504 137.952C79.824 137.136 80.256 136.44 80.8 135.864C81.36 135.288 82.016 134.84 82.768 134.52C83.536 134.2 84.368 134.04 85.264 134.04C86.176 134.04 87.008 134.2 87.76 134.52C88.528 134.84 89.184 135.288 89.728 135.864C90.272 136.44 90.696 137.136 91 137.952C91.304 138.768 91.456 139.672 91.456 140.664ZM87.808 140.664C87.808 139.56 87.584 138.696 87.136 138.072C86.704 137.432 86.08 137.112 85.264 137.112C84.448 137.112 83.816 137.432 83.368 138.072C82.92 138.696 82.696 139.56 82.696 140.664C82.696 141.768 82.92 142.648 83.368 143.304C83.816 143.944 84.448 144.264 85.264 144.264C86.08 144.264 86.704 143.944 87.136 143.304C87.584 142.648 87.808 141.768 87.808 140.664ZM93.8061 131.232L97.3821 130.656V134.376H101.678V137.352H97.3821V141.792C97.3821 142.544 97.5101 143.144 97.7661 143.592C98.0381 144.04 98.5741 144.264 99.3741 144.264C99.7581 144.264 100.15 144.232 100.55 144.168C100.966 144.088 101.342 143.984 101.678 143.856L102.182 146.64C101.75 146.816 101.27 146.968 100.742 147.096C100.214 147.224 99.5661 147.288 98.7981 147.288C97.8221 147.288 97.0141 147.16 96.3741 146.904C95.7341 146.632 95.2221 146.264 94.8381 145.8C94.4541 145.32 94.1821 144.744 94.0221 144.072C93.8781 143.4 93.8061 142.656 93.8061 141.84V131.232Z" fill="#534F70"/>
<path d="M6.60267 165V161.108C5.95867 160.109 5.35201 159.125 4.78267 158.154C4.21334 157.183 3.67667 156.231 3.17267 155.298H4.76867C5.12334 156.063 5.52001 156.843 5.95867 157.636C6.39734 158.42 6.85001 159.176 7.31667 159.904C7.77401 159.176 8.22201 158.42 8.66067 157.636C9.09934 156.843 9.50067 156.063 9.86467 155.298H11.3767C10.8727 156.231 10.336 157.183 9.76667 158.154C9.19734 159.115 8.59534 160.091 7.96067 161.08V165H6.60267ZM18.0183 161.36C18.0183 161.939 17.9343 162.461 17.7663 162.928C17.5983 163.395 17.3603 163.796 17.0523 164.132C16.7536 164.468 16.3943 164.729 15.9743 164.916C15.5543 165.093 15.0969 165.182 14.6023 165.182C14.1076 165.182 13.6503 165.093 13.2303 164.916C12.8103 164.729 12.4463 164.468 12.1383 164.132C11.8396 163.796 11.6063 163.395 11.4383 162.928C11.2703 162.461 11.1863 161.939 11.1863 161.36C11.1863 160.791 11.2703 160.273 11.4383 159.806C11.6063 159.33 11.8396 158.924 12.1383 158.588C12.4463 158.252 12.8103 157.995 13.2303 157.818C13.6503 157.631 14.1076 157.538 14.6023 157.538C15.0969 157.538 15.5543 157.631 15.9743 157.818C16.3943 157.995 16.7536 158.252 17.0523 158.588C17.3603 158.924 17.5983 159.33 17.7663 159.806C17.9343 160.273 18.0183 160.791 18.0183 161.36ZM16.6603 161.36C16.6603 160.539 16.4736 159.89 16.1003 159.414C15.7363 158.929 15.2369 158.686 14.6023 158.686C13.9676 158.686 13.4636 158.929 13.0903 159.414C12.7263 159.89 12.5443 160.539 12.5443 161.36C12.5443 162.181 12.7263 162.835 13.0903 163.32C13.4636 163.796 13.9676 164.034 14.6023 164.034C15.2369 164.034 15.7363 163.796 16.1003 163.32C16.4736 162.835 16.6603 162.181 16.6603 161.36ZM25.3461 164.79C25.0474 164.865 24.6507 164.944 24.1561 165.028C23.6707 165.112 23.1061 165.154 22.4621 165.154C21.9021 165.154 21.4307 165.075 21.0481 164.916C20.6654 164.748 20.3574 164.515 20.1241 164.216C19.8907 163.917 19.7227 163.567 19.6201 163.166C19.5174 162.755 19.4661 162.303 19.4661 161.808V157.72H20.7681V161.528C20.7681 162.415 20.9081 163.049 21.1881 163.432C21.4681 163.815 21.9394 164.006 22.6021 164.006C22.7421 164.006 22.8867 164.001 23.0361 163.992C23.1854 163.983 23.3254 163.973 23.4561 163.964C23.5867 163.945 23.7034 163.931 23.8061 163.922C23.9181 163.903 23.9974 163.885 24.0441 163.866V157.72H25.3461V164.79ZM29.9771 157.566C30.0891 157.566 30.2151 157.575 30.3551 157.594C30.5045 157.603 30.6491 157.622 30.7891 157.65C30.9291 157.669 31.0551 157.692 31.1671 157.72C31.2885 157.739 31.3771 157.757 31.4331 157.776L31.2091 158.91C31.1065 158.873 30.9338 158.831 30.6911 158.784C30.4578 158.728 30.1545 158.7 29.7811 158.7C29.5385 158.7 29.2958 158.728 29.0531 158.784C28.8198 158.831 28.6658 158.863 28.5911 158.882V165H27.2891V158.028C27.5971 157.916 27.9798 157.813 28.4371 157.72C28.8945 157.617 29.4078 157.566 29.9771 157.566ZM41.3358 160.226H42.6938V164.762C42.5818 164.799 42.4184 164.841 42.2038 164.888C41.9984 164.935 41.7558 164.981 41.4758 165.028C41.2051 165.075 40.9064 165.112 40.5798 165.14C40.2531 165.177 39.9218 165.196 39.5858 165.196C38.9044 165.196 38.2838 165.084 37.7238 164.86C37.1638 164.636 36.6831 164.309 36.2818 163.88C35.8804 163.451 35.5678 162.923 35.3438 162.298C35.1291 161.673 35.0218 160.954 35.0218 160.142C35.0218 159.33 35.1431 158.611 35.3858 157.986C35.6378 157.351 35.9738 156.819 36.3938 156.39C36.8138 155.961 37.3038 155.634 37.8638 155.41C38.4331 155.186 39.0398 155.074 39.6838 155.074C40.1224 155.074 40.5098 155.102 40.8458 155.158C41.1911 155.214 41.4851 155.279 41.7278 155.354C41.9704 155.429 42.1664 155.503 42.3158 155.578C42.4744 155.653 42.5818 155.709 42.6378 155.746L42.2038 156.88C41.9331 156.703 41.5738 156.558 41.1258 156.446C40.6778 156.325 40.2204 156.264 39.7538 156.264C39.2591 156.264 38.8064 156.353 38.3958 156.53C37.9944 156.707 37.6491 156.964 37.3598 157.3C37.0798 157.636 36.8604 158.047 36.7018 158.532C36.5431 159.008 36.4638 159.545 36.4638 160.142C36.4638 160.721 36.5291 161.248 36.6598 161.724C36.7998 162.2 37.0051 162.611 37.2758 162.956C37.5558 163.292 37.8964 163.553 38.2978 163.74C38.7084 163.927 39.1891 164.02 39.7398 164.02C40.1318 164.02 40.4631 164.001 40.7338 163.964C41.0138 163.917 41.2144 163.875 41.3358 163.838V160.226ZM47.124 157.566C47.236 157.566 47.362 157.575 47.502 157.594C47.6514 157.603 47.796 157.622 47.936 157.65C48.076 157.669 48.202 157.692 48.314 157.72C48.4354 157.739 48.524 157.757 48.58 157.776L48.356 158.91C48.2534 158.873 48.0807 158.831 47.838 158.784C47.6047 158.728 47.3014 158.7 46.928 158.7C46.6854 158.7 46.4427 158.728 46.2 158.784C45.9667 158.831 45.8127 158.863 45.738 158.882V165H44.436V158.028C44.744 157.916 45.1267 157.813 45.584 157.72C46.0414 157.617 46.5547 157.566 47.124 157.566ZM55.9624 161.36C55.9624 161.939 55.8784 162.461 55.7104 162.928C55.5424 163.395 55.3044 163.796 54.9964 164.132C54.6977 164.468 54.3384 164.729 53.9184 164.916C53.4984 165.093 53.0411 165.182 52.5464 165.182C52.0517 165.182 51.5944 165.093 51.1744 164.916C50.7544 164.729 50.3904 164.468 50.0824 164.132C49.7837 163.796 49.5504 163.395 49.3824 162.928C49.2144 162.461 49.1304 161.939 49.1304 161.36C49.1304 160.791 49.2144 160.273 49.3824 159.806C49.5504 159.33 49.7837 158.924 50.0824 158.588C50.3904 158.252 50.7544 157.995 51.1744 157.818C51.5944 157.631 52.0517 157.538 52.5464 157.538C53.0411 157.538 53.4984 157.631 53.9184 157.818C54.3384 157.995 54.6977 158.252 54.9964 158.588C55.3044 158.924 55.5424 159.33 55.7104 159.806C55.8784 160.273 55.9624 160.791 55.9624 161.36ZM54.6044 161.36C54.6044 160.539 54.4177 159.89 54.0444 159.414C53.6804 158.929 53.1811 158.686 52.5464 158.686C51.9117 158.686 51.4077 158.929 51.0344 159.414C50.6704 159.89 50.4884 160.539 50.4884 161.36C50.4884 162.181 50.6704 162.835 51.0344 163.32C51.4077 163.796 51.9117 164.034 52.5464 164.034C53.1811 164.034 53.6804 163.796 54.0444 163.32C54.4177 162.835 54.6044 162.181 54.6044 161.36ZM60.6582 165.168C60.0702 165.168 59.5522 165.075 59.1042 164.888C58.6656 164.701 58.2922 164.44 57.9842 164.104C57.6856 163.768 57.4616 163.371 57.3122 162.914C57.1629 162.447 57.0882 161.934 57.0882 161.374C57.0882 160.814 57.1676 160.301 57.3262 159.834C57.4942 159.367 57.7276 158.966 58.0262 158.63C58.3249 158.285 58.6889 158.019 59.1182 157.832C59.5569 157.636 60.0422 157.538 60.5742 157.538C60.9009 157.538 61.2276 157.566 61.5542 157.622C61.8809 157.678 62.1936 157.767 62.4922 157.888L62.1982 158.994C62.0022 158.901 61.7736 158.826 61.5122 158.77C61.2602 158.714 60.9896 158.686 60.7002 158.686C59.9722 158.686 59.4122 158.915 59.0202 159.372C58.6376 159.829 58.4462 160.497 58.4462 161.374C58.4462 161.766 58.4882 162.125 58.5722 162.452C58.6656 162.779 58.8056 163.059 58.9922 163.292C59.1882 163.525 59.4356 163.707 59.7342 163.838C60.0329 163.959 60.3969 164.02 60.8262 164.02C61.1716 164.02 61.4842 163.987 61.7642 163.922C62.0442 163.857 62.2636 163.787 62.4222 163.712L62.6042 164.804C62.5296 164.851 62.4222 164.897 62.2822 164.944C62.1422 164.981 61.9836 165.014 61.8062 165.042C61.6289 165.079 61.4376 165.107 61.2322 165.126C61.0362 165.154 60.8449 165.168 60.6582 165.168ZM63.296 161.374C63.296 160.73 63.3894 160.17 63.576 159.694C63.7627 159.209 64.01 158.807 64.318 158.49C64.626 158.173 64.9807 157.935 65.382 157.776C65.7834 157.617 66.194 157.538 66.614 157.538C67.594 157.538 68.3454 157.846 68.868 158.462C69.3907 159.069 69.652 159.997 69.652 161.248C69.652 161.304 69.652 161.379 69.652 161.472C69.652 161.556 69.6474 161.635 69.638 161.71H64.654C64.71 162.466 64.9294 163.04 65.312 163.432C65.6947 163.824 66.292 164.02 67.104 164.02C67.5614 164.02 67.944 163.983 68.252 163.908C68.5694 163.824 68.8074 163.745 68.966 163.67L69.148 164.762C68.9894 164.846 68.7094 164.935 68.308 165.028C67.916 165.121 67.468 165.168 66.964 165.168C66.3294 165.168 65.7787 165.075 65.312 164.888C64.8547 164.692 64.4767 164.426 64.178 164.09C63.8794 163.754 63.6554 163.357 63.506 162.9C63.366 162.433 63.296 161.925 63.296 161.374ZM68.294 160.66C68.3034 160.072 68.154 159.591 67.846 159.218C67.5474 158.835 67.132 158.644 66.6 158.644C66.3014 158.644 66.0354 158.705 65.802 158.826C65.578 158.938 65.3867 159.087 65.228 159.274C65.0694 159.461 64.9434 159.675 64.85 159.918C64.766 160.161 64.71 160.408 64.682 160.66H68.294ZM73.9103 157.566C74.0223 157.566 74.1483 157.575 74.2883 157.594C74.4377 157.603 74.5823 157.622 74.7223 157.65C74.8623 157.669 74.9883 157.692 75.1003 157.72C75.2217 157.739 75.3103 157.757 75.3663 157.776L75.1423 158.91C75.0397 158.873 74.867 158.831 74.6243 158.784C74.391 158.728 74.0877 158.7 73.7143 158.7C73.4717 158.7 73.229 158.728 72.9863 158.784C72.753 158.831 72.599 158.863 72.5243 158.882V165H71.2223V158.028C71.5303 157.916 71.913 157.813 72.3703 157.72C72.8277 157.617 73.341 157.566 73.9103 157.566ZM75.7695 166.358C75.8722 166.405 76.0028 166.447 76.1615 166.484C76.3295 166.531 76.4928 166.554 76.6515 166.554C77.1648 166.554 77.5662 166.437 77.8555 166.204C78.1448 165.98 78.4062 165.611 78.6395 165.098C78.0515 163.978 77.5008 162.793 76.9875 161.542C76.4835 160.282 76.0635 159.008 75.7275 157.72H77.1275C77.2302 158.14 77.3515 158.593 77.4915 159.078C77.6408 159.563 77.8042 160.063 77.9815 160.576C78.1588 161.089 78.3502 161.603 78.5555 162.116C78.7608 162.629 78.9755 163.124 79.1995 163.6C79.5542 162.62 79.8622 161.649 80.1235 160.688C80.3848 159.727 80.6322 158.737 80.8655 157.72H82.2095C81.8735 159.092 81.5002 160.413 81.0895 161.682C80.6788 162.942 80.2355 164.123 79.7595 165.224C79.5728 165.644 79.3768 166.003 79.1715 166.302C78.9755 166.61 78.7562 166.862 78.5135 167.058C78.2708 167.254 77.9955 167.399 77.6875 167.492C77.3888 167.585 77.0482 167.632 76.6655 167.632C76.5628 167.632 76.4555 167.623 76.3435 167.604C76.2315 167.595 76.1195 167.576 76.0075 167.548C75.9048 167.529 75.8068 167.506 75.7135 167.478C75.6295 167.45 75.5688 167.427 75.5315 167.408L75.7695 166.358ZM90.6607 163.656C90.5674 163.432 90.4414 163.147 90.2827 162.802C90.1334 162.457 89.9701 162.083 89.7927 161.682C89.6154 161.281 89.4241 160.87 89.2187 160.45C89.0227 160.021 88.8361 159.619 88.6587 159.246C88.4814 158.863 88.3134 158.523 88.1547 158.224C88.0054 157.925 87.8841 157.697 87.7907 157.538C87.6881 158.639 87.6041 159.834 87.5387 161.122C87.4734 162.401 87.4174 163.693 87.3707 165H86.0407C86.0781 164.16 86.1201 163.315 86.1667 162.466C86.2134 161.607 86.2647 160.767 86.3207 159.946C86.3861 159.115 86.4514 158.308 86.5167 157.524C86.5914 156.74 86.6707 155.998 86.7547 155.298H87.9447C88.1967 155.709 88.4674 156.194 88.7567 156.754C89.0461 157.314 89.3354 157.902 89.6247 158.518C89.9141 159.125 90.1941 159.736 90.4647 160.352C90.7354 160.959 90.9827 161.514 91.2067 162.018C91.4307 161.514 91.6781 160.959 91.9487 160.352C92.2194 159.736 92.4994 159.125 92.7887 158.518C93.0781 157.902 93.3674 157.314 93.6567 156.754C93.9461 156.194 94.2167 155.709 94.4687 155.298H95.6587C95.9761 158.425 96.2141 161.659 96.3727 165H95.0427C94.9961 163.693 94.9401 162.401 94.8747 161.122C94.8094 159.834 94.7254 158.639 94.6227 157.538C94.5294 157.697 94.4034 157.925 94.2447 158.224C94.0954 158.523 93.9321 158.863 93.7547 159.246C93.5774 159.619 93.3861 160.021 93.1807 160.45C92.9847 160.87 92.7981 161.281 92.6207 161.682C92.4434 162.083 92.2754 162.457 92.1167 162.802C91.9674 163.147 91.8461 163.432 91.7527 163.656H90.6607ZM100.582 164.062C100.89 164.062 101.161 164.057 101.394 164.048C101.637 164.029 101.837 164.001 101.996 163.964V161.794C101.903 161.747 101.749 161.71 101.534 161.682C101.329 161.645 101.077 161.626 100.778 161.626C100.582 161.626 100.372 161.64 100.148 161.668C99.9334 161.696 99.7327 161.757 99.546 161.85C99.3687 161.934 99.2194 162.055 99.098 162.214C98.9767 162.363 98.916 162.564 98.916 162.816C98.916 163.283 99.0654 163.609 99.364 163.796C99.6627 163.973 100.069 164.062 100.582 164.062ZM100.47 157.538C100.993 157.538 101.431 157.608 101.786 157.748C102.15 157.879 102.439 158.07 102.654 158.322C102.878 158.565 103.037 158.859 103.13 159.204C103.223 159.54 103.27 159.913 103.27 160.324V164.874C103.158 164.893 102.999 164.921 102.794 164.958C102.598 164.986 102.374 165.014 102.122 165.042C101.87 165.07 101.595 165.093 101.296 165.112C101.007 165.14 100.717 165.154 100.428 165.154C100.017 165.154 99.6394 165.112 99.294 165.028C98.9487 164.944 98.65 164.813 98.398 164.636C98.146 164.449 97.95 164.207 97.81 163.908C97.67 163.609 97.6 163.25 97.6 162.83C97.6 162.429 97.6794 162.083 97.838 161.794C98.006 161.505 98.23 161.271 98.51 161.094C98.79 160.917 99.1167 160.786 99.49 160.702C99.8634 160.618 100.255 160.576 100.666 160.576C100.797 160.576 100.932 160.585 101.072 160.604C101.212 160.613 101.343 160.632 101.464 160.66C101.595 160.679 101.707 160.697 101.8 160.716C101.893 160.735 101.959 160.749 101.996 160.758V160.394C101.996 160.179 101.973 159.969 101.926 159.764C101.879 159.549 101.795 159.363 101.674 159.204C101.553 159.036 101.385 158.905 101.17 158.812C100.965 158.709 100.694 158.658 100.358 158.658C99.9287 158.658 99.5507 158.691 99.224 158.756C98.9067 158.812 98.6687 158.873 98.51 158.938L98.356 157.86C98.524 157.785 98.804 157.715 99.196 157.65C99.588 157.575 100.013 157.538 100.47 157.538ZM107.82 157.566C107.932 157.566 108.058 157.575 108.198 157.594C108.348 157.603 108.492 157.622 108.632 157.65C108.772 157.669 108.898 157.692 109.01 157.72C109.132 157.739 109.22 157.757 109.276 157.776L109.052 158.91C108.95 158.873 108.777 158.831 108.534 158.784C108.301 158.728 107.998 158.7 107.624 158.7C107.382 158.7 107.139 158.728 106.896 158.784C106.663 158.831 106.509 158.863 106.434 158.882V165H105.132V158.028C105.44 157.916 105.823 157.813 106.28 157.72C106.738 157.617 107.251 157.566 107.82 157.566ZM112.865 160.996C113.145 161.211 113.439 161.477 113.747 161.794C114.064 162.111 114.372 162.457 114.671 162.83C114.979 163.194 115.268 163.567 115.539 163.95C115.81 164.323 116.038 164.673 116.225 165H114.699C114.503 164.673 114.274 164.342 114.013 164.006C113.761 163.661 113.495 163.334 113.215 163.026C112.935 162.709 112.65 162.419 112.361 162.158C112.072 161.897 111.796 161.677 111.535 161.5V165H110.233V154.36L111.535 154.136V160.772C111.759 160.548 112.006 160.301 112.277 160.03C112.548 159.759 112.814 159.484 113.075 159.204C113.336 158.924 113.584 158.658 113.817 158.406C114.05 158.145 114.251 157.916 114.419 157.72H115.945C115.73 157.953 115.497 158.21 115.245 158.49C114.993 158.77 114.732 159.055 114.461 159.344C114.19 159.624 113.915 159.909 113.635 160.198C113.364 160.478 113.108 160.744 112.865 160.996ZM116.472 161.374C116.472 160.73 116.566 160.17 116.752 159.694C116.939 159.209 117.186 158.807 117.494 158.49C117.802 158.173 118.157 157.935 118.558 157.776C118.96 157.617 119.37 157.538 119.79 157.538C120.77 157.538 121.522 157.846 122.044 158.462C122.567 159.069 122.828 159.997 122.828 161.248C122.828 161.304 122.828 161.379 122.828 161.472C122.828 161.556 122.824 161.635 122.814 161.71H117.83C117.886 162.466 118.106 163.04 118.488 163.432C118.871 163.824 119.468 164.02 120.28 164.02C120.738 164.02 121.12 163.983 121.428 163.908C121.746 163.824 121.984 163.745 122.142 163.67L122.324 164.762C122.166 164.846 121.886 164.935 121.484 165.028C121.092 165.121 120.644 165.168 120.14 165.168C119.506 165.168 118.955 165.075 118.488 164.888C118.031 164.692 117.653 164.426 117.354 164.09C117.056 163.754 116.832 163.357 116.682 162.9C116.542 162.433 116.472 161.925 116.472 161.374ZM121.47 160.66C121.48 160.072 121.33 159.591 121.022 159.218C120.724 158.835 120.308 158.644 119.776 158.644C119.478 158.644 119.212 158.705 118.978 158.826C118.754 158.938 118.563 159.087 118.404 159.274C118.246 159.461 118.12 159.675 118.026 159.918C117.942 160.161 117.886 160.408 117.858 160.66H121.47ZM125.617 157.72H128.375V158.812H125.617V162.172C125.617 162.536 125.645 162.839 125.701 163.082C125.757 163.315 125.841 163.502 125.953 163.642C126.065 163.773 126.205 163.866 126.373 163.922C126.541 163.978 126.737 164.006 126.961 164.006C127.353 164.006 127.665 163.964 127.899 163.88C128.141 163.787 128.309 163.721 128.403 163.684L128.655 164.762C128.524 164.827 128.295 164.907 127.969 165C127.642 165.103 127.269 165.154 126.849 165.154C126.354 165.154 125.943 165.093 125.617 164.972C125.299 164.841 125.043 164.65 124.847 164.398C124.651 164.146 124.511 163.838 124.427 163.474C124.352 163.101 124.315 162.671 124.315 162.186V155.69L125.617 155.466V157.72Z" fill="#534F70"/>
<g filter="url(#filter0_d_273_1264)">
<rect x="16" y="12" width="100" height="100" rx="24" fill="white"/>
</g>
<path d="M91.9266 40.3388C91.8671 40.2213 91.7973 40.1092 91.7179 40.0041C91.0396 39.0499 90.0553 38.3566 88.9284 38.0392C87.8819 37.7532 86.782 37.7232 85.7216 37.9519C85.0212 38.0897 84.3356 38.2944 83.6743 38.5632C84.2487 37.0407 84.3184 35.3739 83.8732 33.8088C83.7207 33.3371 83.5018 32.8895 83.2231 32.4795C82.8061 31.8437 82.2419 31.3179 81.5785 30.9465C80.4198 30.4065 79.0976 30.3336 77.8865 30.7427C76.7865 31.1068 75.799 31.7485 75.0193 32.6056C74.6957 32.9405 74.3973 33.2989 74.1267 33.6778C73.8451 32.4101 73.3014 31.2153 72.5306 30.1702C72.2264 29.7771 71.8743 29.4235 71.4827 29.1175C70.4809 28.3071 69.206 27.9128 67.9217 28.0162C67.1227 28.1582 66.3689 28.4883 65.7227 28.9793C65.0765 29.4702 64.5564 30.108 64.2055 30.8397C62.1388 34.847 63.8368 41.8767 69.2704 51.73C69.33 51.8457 69.4165 51.9456 69.5227 52.021C69.5689 52.0567 69.6175 52.0891 69.6682 52.1181L71.3274 52.9671C71.4596 53.0402 71.6081 53.0786 71.7592 53.0786H71.8756C72.55 52.9913 73.2098 52.904 73.8502 52.8118C83.8344 51.3904 89.8598 48.7512 91.8004 44.9719C92.1852 44.2643 92.3972 43.4757 92.4192 42.6705C92.4411 41.8653 92.2723 41.0663 91.9266 40.3388ZM90.1218 44.1811C89.1515 46.0829 85.4645 49.5177 72.123 51.1817L71.9387 51.206L70.7501 50.5996C64.2201 38.6651 64.8314 33.6584 65.8016 31.7324C66.0119 31.2554 66.3328 30.8354 66.7378 30.5072C67.1427 30.179 67.6201 29.952 68.1303 29.8452C68.6622 29.806 69.1949 29.9098 69.6731 30.146C69.9263 30.2657 70.1641 30.4156 70.3814 30.5923C71.6525 31.6111 72.4529 33.6147 72.7052 36.414C72.7207 36.6154 72.8021 36.806 72.937 36.9564C73.0719 37.1067 73.2527 37.2082 73.4512 37.2453C73.6498 37.2824 73.855 37.2528 74.035 37.1613C74.2151 37.0697 74.3598 36.9213 74.4469 36.7391C74.8151 35.977 75.2588 35.2537 75.7713 34.5802C76.4283 33.6433 77.3485 32.9223 78.4153 32.5086C79.16 32.2489 79.9735 32.2678 80.7052 32.562H80.7392C81.4286 32.9717 81.9328 33.6324 82.1461 34.4055C82.6021 35.861 82.214 37.8015 81.0254 40.0671C80.9234 40.2435 80.883 40.4489 80.9107 40.6508C80.9384 40.8527 81.0325 41.0397 81.1783 41.1821C81.3241 41.3245 81.5131 41.4143 81.7156 41.4373C81.9181 41.4603 82.1225 41.4152 82.2965 41.3091C83.1797 40.7749 84.1203 40.342 85.1006 40.0186C86.1462 39.6299 87.2824 39.554 88.3705 39.8003C89.1728 39.9937 89.8685 40.4912 90.311 41.1878C90.5179 41.6663 90.6086 42.1869 90.5757 42.7072C90.5428 43.2274 90.3873 43.7325 90.1218 44.1811Z" fill="#534F70"/>
<path d="M72.1088 51.1816L71.9245 51.2058L70.7504 50.5994C64.2204 38.6649 64.8317 33.6582 65.802 31.7322C66.0122 31.2552 66.3331 30.8352 66.7381 30.507C67.1431 30.1788 67.6204 29.9519 68.1306 29.845C68.6625 29.8058 69.1952 29.9097 69.6734 30.1458C67.6358 31.1064 63.5169 35.0942 72.1088 51.1816Z" fill="white"/>
<path d="M90.1219 44.1812C89.1517 46.0829 85.4646 49.5177 72.1232 51.1818C63.5167 35.0944 67.6356 31.1066 69.6829 30.146C69.9361 30.2658 70.1739 30.4156 70.3912 30.5923C71.6623 31.6111 72.4628 33.6148 72.715 36.414C72.7305 36.6154 72.812 36.8061 72.9468 36.9564C73.0817 37.1067 73.2625 37.2083 73.461 37.2453C73.6596 37.2824 73.8648 37.2528 74.0448 37.1613C74.2249 37.0698 74.3697 36.9213 74.4567 36.7391C74.8249 35.977 75.2686 35.2538 75.7811 34.5802C76.4355 33.6448 77.3521 32.924 78.4155 32.5086C79.1601 32.2489 79.9736 32.2678 80.7053 32.562H80.7393C81.4288 32.9717 81.9329 33.6324 82.1462 34.4055C82.6022 35.861 82.2141 37.8015 81.0255 40.0672C80.9235 40.2436 80.8831 40.4489 80.9108 40.6508C80.9385 40.8527 81.0326 41.0397 81.1784 41.1821C81.3242 41.3245 81.5132 41.4143 81.7157 41.4373C81.9182 41.4603 82.1226 41.4152 82.2966 41.3091C83.1798 40.7749 84.1205 40.342 85.1007 40.0186C86.1463 39.6299 87.2826 39.554 88.3706 39.8003C89.1729 39.9937 89.8687 40.4912 90.3112 41.1878C90.518 41.6663 90.6087 42.187 90.5758 42.7072C90.5429 43.2274 90.3874 43.7325 90.1219 44.1812Z" fill="#4DDB6C"/>
<path d="M54.5758 93.5831C53.727 94.1591 52.8216 94.6468 51.8735 95.0385L51.7037 94.9609C51.1714 94.6296 50.7834 94.11 50.617 93.5055C47.7062 85.7432 56.3854 52.3023 61.5618 49.1489C62.3407 48.6771 63.1862 48.3254 64.07 48.1059C69.2222 46.796 74.8305 49.8087 74.8305 49.8087C74.8305 49.8087 74.9809 49.8815 75.2477 50.027C77.7025 51.822 81.0257 55.0434 81.3702 59.5116C81.8602 65.5904 63.9778 87.3248 54.5758 93.5831Z" fill="#FF9A00"/>
<path d="M81.3894 59.5553C81.0449 55.0871 77.7217 51.8658 75.2669 50.0707C74.4361 49.4594 73.5585 48.9143 72.6423 48.4407C72.3172 48.2612 64.487 44.1375 58.4616 47.81C53.2948 50.9586 46.1001 78.1653 46.5174 89.4546C46.6338 92.6517 47.3372 94.534 48.6617 95.2132C49.0542 95.4101 49.4888 95.5084 49.9279 95.4995C50.6037 95.4768 51.2697 95.3304 51.8927 95.0677C52.8408 94.676 53.7462 94.1883 54.595 93.6123C63.9776 87.3248 81.86 65.5904 81.3894 59.5553ZM70.2699 75.2836C64.4142 82.6092 57.8551 89.1878 53.5568 92.0307C52.661 92.6795 51.6689 93.1837 50.6168 93.5249C50.2524 93.6615 49.8508 93.6615 49.4864 93.5249C49.2487 93.4037 48.4628 92.739 48.3415 89.3382C48.1523 84.1762 49.6562 75.0071 52.179 65.9786C55.0267 55.7906 57.86 50.2745 59.4027 49.3333C60.8178 48.5068 62.4311 48.0809 64.0698 48.1011H64.1862C68.1062 48.1011 71.7108 49.998 71.7836 50.0416C71.8563 50.0853 79.0898 53.6754 79.5458 59.6669C79.6962 61.4958 76.8776 67.0168 70.2699 75.2836Z" fill="#534F70"/>
<path d="M64.07 48.1397C63.1862 48.3593 62.3406 48.7109 61.5618 49.1828C56.3853 52.3362 47.7255 85.7722 50.617 93.5393C50.2526 93.6759 49.851 93.6759 49.4866 93.5393C49.2489 93.418 48.4629 92.7534 48.3417 89.3526C48.1525 84.1906 49.6564 75.0214 52.1791 65.9929C55.0269 55.805 57.8602 50.2889 59.4029 49.3477C60.8204 48.5297 62.4336 48.1122 64.07 48.1397Z" fill="white"/>
<path d="M75.7814 69.3697C75.6349 69.3681 75.4906 69.3333 75.3594 69.2678L68.2278 65.6099C68.1151 65.5577 68.0142 65.4834 67.9309 65.3913C67.8477 65.2992 67.784 65.1912 67.7435 65.0739C67.703 64.9566 67.6867 64.8323 67.6954 64.7084C67.7041 64.5846 67.7378 64.4638 67.7944 64.3534C67.8509 64.2429 67.9292 64.1449 68.0245 64.0654C68.1198 63.9859 68.2302 63.9265 68.3491 63.8907C68.468 63.8549 68.5928 63.8435 68.7162 63.8571C68.8396 63.8708 68.9589 63.9092 69.0671 63.9701L76.2132 67.6281C76.3972 67.7226 76.5441 67.8763 76.6301 68.0644C76.7162 68.2524 76.7365 68.464 76.6878 68.6651C76.6391 68.8661 76.5242 69.0449 76.3615 69.1727C76.1989 69.3005 75.998 69.3699 75.7911 69.3697H75.7814Z" fill="#534F70"/>
<path d="M59.8008 68.0938C59.6557 68.093 59.5127 68.0581 59.3836 67.9919L51.956 64.1884C51.7485 64.0716 51.5943 63.879 51.5256 63.6509C51.4569 63.4229 51.4792 63.1772 51.5877 62.9652C51.6962 62.7532 51.8825 62.5914 52.1076 62.5138C52.3328 62.4361 52.5792 62.4486 52.7953 62.5486L60.2229 66.3521C60.4069 66.4467 60.5537 66.6003 60.6398 66.7884C60.7259 66.9765 60.7462 67.1881 60.6975 67.3891C60.6487 67.5901 60.5338 67.7689 60.3712 67.8968C60.2085 68.0246 60.0076 68.094 59.8008 68.0938Z" fill="#534F70"/>
<path d="M67.8635 80.5425C67.7167 80.5422 67.5721 80.5073 67.4414 80.4406L60.4651 76.8554C60.2576 76.7386 60.1033 76.546 60.0346 76.3179C59.966 76.0899 59.9882 75.8441 60.0967 75.6322C60.2052 75.4202 60.3916 75.2584 60.6167 75.1808C60.8418 75.1031 61.0882 75.1156 61.3044 75.2156L68.305 78.8008C68.4886 78.8951 68.6352 79.0484 68.7214 79.236C68.8076 79.4236 68.8283 79.6347 68.7802 79.8354C68.7321 80.0362 68.618 80.215 68.4562 80.3432C68.2944 80.4714 68.0942 80.5416 67.8878 80.5425H67.8635Z" fill="#534F70"/>
<path d="M54.925 81.804C54.7802 81.8054 54.6371 81.7722 54.5078 81.707L48.2543 78.505C48.0362 78.3937 47.8713 78.2004 47.7957 77.9675C47.7202 77.7345 47.7403 77.4812 47.8516 77.2631C47.9629 77.045 48.1563 76.88 48.3892 76.8045C48.6221 76.729 48.8755 76.7491 49.0936 76.8604L55.3471 80.0623C55.4548 80.1177 55.5505 80.1938 55.6288 80.2862C55.7071 80.3786 55.7664 80.4855 55.8033 80.6009C55.8403 80.7162 55.8541 80.8377 55.8441 80.9584C55.8341 81.0791 55.8004 81.1966 55.7449 81.3043C55.6682 81.4556 55.5508 81.5825 55.406 81.6708C55.2612 81.759 55.0946 81.8052 54.925 81.804Z" fill="#534F70"/>
<path d="M66.5782 58.1339C66.433 58.133 66.2901 58.0982 66.161 58.032L55.9293 52.7876C55.8214 52.7331 55.7252 52.6578 55.6465 52.566C55.5678 52.4743 55.508 52.3678 55.4706 52.2528C55.4331 52.1378 55.4188 52.0166 55.4284 51.8961C55.4381 51.7755 55.4714 51.6581 55.5266 51.5505C55.6386 51.333 55.832 51.1687 56.0647 51.0933C56.2973 51.0178 56.5503 51.0374 56.7686 51.1478L67.0003 56.3922C67.1842 56.4867 67.3311 56.6404 67.4172 56.8285C67.5033 57.0166 67.5236 57.2282 67.4749 57.4292C67.4261 57.6302 67.3112 57.809 67.1486 57.9368C66.9859 58.0647 66.785 58.1341 66.5782 58.1339Z" fill="#534F70"/>
<path d="M57.8068 90.6238C57.6602 90.6222 57.5159 90.5873 57.3847 90.5219L51.1361 87.32C50.9286 87.2032 50.7743 87.0106 50.7057 86.7825C50.637 86.5545 50.6592 86.3088 50.7677 86.0968C50.8762 85.8848 51.0626 85.723 51.2877 85.6454C51.5128 85.5677 51.7593 85.5802 51.9754 85.6802L58.2289 88.8821C58.4129 88.9767 58.5597 89.1303 58.6458 89.3184C58.7319 89.5065 58.7522 89.7181 58.7035 89.9191C58.6548 90.1202 58.5398 90.299 58.3772 90.4268C58.2146 90.5546 58.0136 90.624 57.8068 90.6238Z" fill="#534F70"/>
<defs>
<filter id="filter0_d_273_1264" x="0" y="0" width="140" height="140" filterUnits="userSpaceOnUse" color-interpolation-filters="sRGB">
<feFlood flood-opacity="0" result="BackgroundImageFix"/>
<feColorMatrix in="SourceAlpha" type="matrix" values="0 0 0 0 0 0 0 0 0 0 0 0 0 0 0 0 0 0 127 0" result="hardAlpha"/>
<feOffset dx="4" dy="8"/>
<feGaussianBlur stdDeviation="10"/>
<feColorMatrix type="matrix" values="0 0 0 0 0 0 0 0 0 0 0 0 0 0 0 0 0 0 0.1 0"/>
<feBlend mode="normal" in2="BackgroundImageFix" result="effect1_dropShadow_273_1264"/>
<feBlend mode="normal" in="SourceGraphic" in2="effect1_dropShadow_273_1264" result="shape"/>
</filter>
</defs>
</svg>
